<svg width="36" height="28" viewBox="0 0 36 28" fill="none" xmlns="http://www.w3.org/2000/svg">
<path fill-rule="evenodd" clip-rule="evenodd" d="M16.4104 6.58261H12.389V5.58372H16.4107L16.4104 6.58261ZM9.71189 10.6787C9.97137 11.0806 10.101 11.5686 10.101 12.1415C10.101 12.7339 9.95484 13.2654 9.65741 13.7349C9.4682 14.0456 9.23327 14.308 8.951 14.5193C8.63308 14.7636 8.2567 14.9311 7.82402 15.0207C7.38995 15.1103 6.92014 15.1556 6.41406 15.1556H1.91667V5.16943H6.73943C7.95506 5.18921 8.81689 5.54141 9.32581 6.23309C9.63118 6.65731 9.78249 7.16634 9.78249 7.75802C9.78249 8.36854 9.62935 8.85705 9.321 9.2282C9.14947 9.4363 8.89607 9.62559 8.56062 9.79645C9.06872 9.98246 9.45424 10.2754 9.71189 10.6787ZM4.21973 9.10649H6.33286C6.76712 9.10649 7.11816 9.02395 7.38853 8.85895C7.65872 8.69421 7.79353 8.40137 7.79353 7.98093C7.79353 7.51641 7.61503 7.20809 7.25715 7.05969C6.94954 6.9566 6.55596 6.9035 6.07838 6.9035H4.21973V9.10649ZM7.997 11.9988C7.997 11.4801 7.78499 11.1215 7.36182 10.9291C7.12517 10.8197 6.79129 10.7638 6.3632 10.7598H4.21973V13.4211H6.33003C6.76357 13.4211 7.09913 13.3643 7.34129 13.2459C7.77801 13.0282 7.997 12.6139 7.997 11.9988ZM17.9025 10.3742C17.951 10.701 17.973 11.175 17.9641 11.7946H12.756C12.7847 12.5135 13.0329 13.0162 13.5035 13.3039C13.7874 13.4843 14.1315 13.5724 14.5345 13.5724C14.9594 13.5724 15.3058 13.465 15.5724 13.2441C15.7176 13.1271 15.8458 12.9619 15.9566 12.7534H17.8655C17.8155 13.178 17.5857 13.6086 17.1726 14.0462C16.5326 14.7418 15.6351 15.0906 14.4824 15.0906C13.5302 15.0906 12.691 14.7964 11.9625 14.2103C11.2365 13.622 10.8719 12.6681 10.8719 11.3448C10.8719 10.1038 11.1992 9.15402 11.8561 8.4929C12.5155 7.83055 13.3664 7.50089 14.4152 7.50089C15.0369 7.50089 15.5973 7.61201 16.0973 7.8354C16.5957 8.05902 17.0076 8.41096 17.332 8.89466C17.6255 9.32063 17.8144 9.81316 17.9025 10.3742ZM16.0235 10.5606C15.9885 10.0635 15.8225 9.68727 15.5236 9.43014C15.2273 9.17231 14.857 9.04287 14.4152 9.04287C13.9344 9.04287 13.5631 9.18122 13.2993 9.45316C13.0337 9.72455 12.8685 10.0935 12.8007 10.5606L16.0235 10.5606Z" fill="black"/>
</svg>
