<svg width="373" height="368" viewBox="0 0 373 368" fill="none" xmlns="http://www.w3.org/2000/svg">
<rect opacity="0.1" x="17" y="17" width="350" height="350" rx="175" stroke="black" stroke-width="2"/>
<rect opacity="0.2" x="49" y="49" width="286" height="286" rx="143" stroke="black" stroke-width="2"/>
<rect opacity="0.3" x="81" y="81" width="222" height="222" rx="111" stroke="black" stroke-width="2"/>
<rect opacity="0.4" x="113" y="113" width="158" height="158" rx="79" stroke="black" stroke-width="2"/>
<g filter="url(#filter0_dd_2_849)">
<rect x="272" y="264" width="96" height="40" rx="8" fill="#0284FE"/>
<path d="M302.092 286.437C302.092 286.231 302.06 286.049 301.996 285.89C301.937 285.73 301.83 285.584 301.675 285.452C301.52 285.32 301.301 285.192 301.018 285.069C300.74 284.942 300.385 284.812 299.952 284.68C299.478 284.534 299.041 284.372 298.64 284.194C298.243 284.012 297.897 283.802 297.6 283.565C297.304 283.324 297.074 283.048 296.91 282.738C296.746 282.424 296.664 282.062 296.664 281.651C296.664 281.246 296.748 280.877 296.917 280.544C297.09 280.211 297.334 279.924 297.648 279.683C297.967 279.437 298.343 279.247 298.776 279.115C299.209 278.979 299.688 278.91 300.212 278.91C300.95 278.91 301.586 279.047 302.119 279.32C302.657 279.594 303.069 279.961 303.356 280.421C303.648 280.881 303.794 281.389 303.794 281.945H302.092C302.092 281.617 302.021 281.328 301.88 281.077C301.743 280.822 301.533 280.621 301.251 280.476C300.973 280.33 300.62 280.257 300.191 280.257C299.786 280.257 299.448 280.318 299.18 280.441C298.911 280.564 298.71 280.731 298.578 280.94C298.446 281.15 298.38 281.387 298.38 281.651C298.38 281.838 298.423 282.009 298.51 282.164C298.596 282.314 298.728 282.456 298.906 282.588C299.084 282.715 299.307 282.836 299.576 282.95C299.845 283.064 300.162 283.174 300.526 283.278C301.078 283.442 301.558 283.625 301.969 283.825C302.379 284.021 302.721 284.244 302.994 284.495C303.267 284.746 303.473 285.031 303.609 285.35C303.746 285.664 303.814 286.022 303.814 286.423C303.814 286.842 303.73 287.22 303.561 287.558C303.393 287.89 303.151 288.175 302.837 288.412C302.527 288.645 302.153 288.825 301.716 288.952C301.283 289.075 300.8 289.137 300.266 289.137C299.788 289.137 299.316 289.073 298.851 288.945C298.391 288.818 297.972 288.624 297.594 288.364C297.215 288.1 296.915 287.772 296.691 287.38C296.468 286.983 296.356 286.521 296.356 285.992H298.072C298.072 286.316 298.127 286.591 298.236 286.819C298.35 287.047 298.507 287.234 298.708 287.38C298.908 287.521 299.141 287.626 299.405 287.694C299.674 287.763 299.961 287.797 300.266 287.797C300.668 287.797 301.002 287.74 301.271 287.626C301.545 287.512 301.75 287.353 301.887 287.147C302.023 286.942 302.092 286.705 302.092 286.437ZM306.932 281.604V289H305.277V281.604H306.932ZM305.168 279.662C305.168 279.411 305.25 279.204 305.414 279.04C305.583 278.871 305.815 278.787 306.111 278.787C306.403 278.787 306.633 278.871 306.802 279.04C306.97 279.204 307.055 279.411 307.055 279.662C307.055 279.908 306.97 280.113 306.802 280.277C306.633 280.441 306.403 280.523 306.111 280.523C305.815 280.523 305.583 280.441 305.414 280.277C305.25 280.113 305.168 279.908 305.168 279.662ZM313.474 281.604H314.971V288.795C314.971 289.46 314.829 290.025 314.547 290.49C314.264 290.955 313.87 291.308 313.364 291.55C312.858 291.796 312.273 291.919 311.607 291.919C311.325 291.919 311.01 291.878 310.664 291.796C310.322 291.714 309.989 291.582 309.666 291.399C309.347 291.222 309.08 290.987 308.866 290.695L309.639 289.725C309.903 290.039 310.195 290.269 310.514 290.415C310.833 290.561 311.168 290.634 311.518 290.634C311.897 290.634 312.218 290.563 312.482 290.422C312.751 290.285 312.959 290.082 313.104 289.813C313.25 289.545 313.323 289.216 313.323 288.829V283.278L313.474 281.604ZM308.449 285.384V285.24C308.449 284.68 308.517 284.169 308.654 283.709C308.791 283.244 308.987 282.845 309.242 282.513C309.497 282.175 309.807 281.918 310.172 281.74C310.536 281.558 310.949 281.467 311.409 281.467C311.888 281.467 312.295 281.553 312.633 281.727C312.974 281.9 313.259 282.148 313.487 282.472C313.715 282.791 313.893 283.174 314.02 283.62C314.153 284.062 314.251 284.554 314.314 285.097V285.555C314.255 286.083 314.155 286.566 314.014 287.004C313.872 287.441 313.685 287.82 313.453 288.139C313.221 288.458 312.933 288.704 312.592 288.877C312.254 289.05 311.856 289.137 311.395 289.137C310.944 289.137 310.536 289.043 310.172 288.856C309.812 288.67 309.502 288.408 309.242 288.07C308.987 287.733 308.791 287.337 308.654 286.881C308.517 286.421 308.449 285.922 308.449 285.384ZM310.097 285.24V285.384C310.097 285.721 310.128 286.035 310.192 286.327C310.261 286.619 310.363 286.876 310.5 287.1C310.641 287.318 310.819 287.492 311.033 287.619C311.252 287.742 311.509 287.804 311.806 287.804C312.193 287.804 312.51 287.722 312.756 287.558C313.006 287.394 313.198 287.173 313.33 286.895C313.467 286.612 313.562 286.298 313.617 285.951V284.714C313.59 284.445 313.533 284.194 313.446 283.962C313.364 283.729 313.252 283.527 313.111 283.354C312.97 283.176 312.792 283.039 312.578 282.943C312.364 282.843 312.111 282.793 311.819 282.793C311.523 282.793 311.266 282.857 311.047 282.984C310.828 283.112 310.648 283.287 310.507 283.511C310.37 283.734 310.267 283.994 310.199 284.29C310.131 284.586 310.097 284.903 310.097 285.24ZM318.313 283.183V289H316.666V281.604H318.218L318.313 283.183ZM318.019 285.028L317.486 285.021C317.491 284.497 317.564 284.017 317.705 283.579C317.851 283.142 318.051 282.766 318.307 282.451C318.566 282.137 318.876 281.895 319.236 281.727C319.596 281.553 319.997 281.467 320.439 281.467C320.795 281.467 321.116 281.517 321.403 281.617C321.695 281.713 321.943 281.87 322.148 282.089C322.358 282.308 322.517 282.592 322.627 282.943C322.736 283.29 322.791 283.716 322.791 284.222V289H321.137V284.215C321.137 283.859 321.084 283.579 320.979 283.374C320.879 283.164 320.731 283.016 320.535 282.93C320.344 282.839 320.104 282.793 319.817 282.793C319.535 282.793 319.282 282.852 319.058 282.971C318.835 283.089 318.646 283.251 318.491 283.456C318.341 283.661 318.224 283.898 318.142 284.167C318.06 284.436 318.019 284.723 318.019 285.028ZM333.708 279.047H335.417V285.698C335.417 286.455 335.253 287.088 334.925 287.599C334.597 288.109 334.15 288.494 333.585 288.754C333.024 289.009 332.398 289.137 331.705 289.137C330.989 289.137 330.351 289.009 329.791 288.754C329.23 288.494 328.788 288.109 328.465 287.599C328.146 287.088 327.986 286.455 327.986 285.698V279.047H329.695V285.698C329.695 286.177 329.777 286.571 329.941 286.881C330.105 287.186 330.338 287.412 330.639 287.558C330.939 287.703 331.295 287.776 331.705 287.776C332.115 287.776 332.468 287.703 332.765 287.558C333.065 287.412 333.298 287.186 333.462 286.881C333.626 286.571 333.708 286.177 333.708 285.698V279.047ZM338.773 283.025V291.844H337.126V281.604H338.643L338.773 283.025ZM343.593 285.233V285.377C343.593 285.915 343.529 286.414 343.401 286.874C343.278 287.33 343.094 287.729 342.848 288.07C342.606 288.408 342.307 288.67 341.952 288.856C341.597 289.043 341.186 289.137 340.722 289.137C340.261 289.137 339.858 289.052 339.512 288.884C339.17 288.711 338.88 288.467 338.643 288.152C338.406 287.838 338.215 287.469 338.069 287.045C337.928 286.617 337.828 286.147 337.768 285.637V285.083C337.828 284.541 337.928 284.049 338.069 283.606C338.215 283.164 338.406 282.784 338.643 282.465C338.88 282.146 339.17 281.9 339.512 281.727C339.853 281.553 340.252 281.467 340.708 281.467C341.173 281.467 341.585 281.558 341.945 281.74C342.305 281.918 342.608 282.173 342.854 282.506C343.1 282.834 343.285 283.23 343.408 283.695C343.531 284.156 343.593 284.668 343.593 285.233ZM341.945 285.377V285.233C341.945 284.892 341.913 284.575 341.849 284.283C341.786 283.987 341.685 283.727 341.549 283.504C341.412 283.281 341.237 283.107 341.022 282.984C340.813 282.857 340.56 282.793 340.264 282.793C339.972 282.793 339.721 282.843 339.512 282.943C339.302 283.039 339.127 283.174 338.985 283.347C338.844 283.52 338.735 283.723 338.657 283.955C338.58 284.183 338.525 284.431 338.493 284.7V286.026C338.548 286.354 338.641 286.655 338.773 286.929C338.905 287.202 339.092 287.421 339.334 287.585C339.58 287.744 339.894 287.824 340.277 287.824C340.573 287.824 340.826 287.76 341.036 287.633C341.246 287.505 341.417 287.33 341.549 287.106C341.685 286.879 341.786 286.617 341.849 286.32C341.913 286.024 341.945 285.71 341.945 285.377Z" fill="white"/>
</g>
<g filter="url(#filter1_dd_2_849)">
<rect x="32" y="120" width="40" height="40" rx="20" fill="#F7AF22"/>
<path fill-rule="evenodd" clip-rule="evenodd" d="M51.25 139.25V135.5C51.25 135.086 51.5858 134.75 52 134.75C52.4142 134.75 52.75 135.086 52.75 135.5V139.25H56.5C56.9142 139.25 57.25 139.586 57.25 140C57.25 140.414 56.9142 140.75 56.5 140.75H52.75V144.5C52.75 144.914 52.4142 145.25 52 145.25C51.5858 145.25 51.25 144.914 51.25 144.5V140.75H47.5C47.0858 140.75 46.75 140.414 46.75 140C46.75 139.586 47.0858 139.25 47.5 139.25H51.25Z" fill="white"/>
</g>
<path d="M85.8458 330H98.1542C99.4915 330 99.9764 330.139 100.465 330.401C100.954 330.662 101.338 331.046 101.599 331.535C101.861 332.024 102 332.509 102 333.846V346.154C102 347.491 101.861 347.976 101.599 348.465C101.338 348.954 100.954 349.338 100.465 349.599C99.9764 349.861 99.4915 350 98.1542 350H85.8458C84.5085 350 84.0236 349.861 83.5347 349.599C83.0458 349.338 82.6622 348.954 82.4007 348.465C82.1392 347.976 82 347.491 82 346.154V333.846C82 332.509 82.1392 332.024 82.4007 331.535C82.6622 331.046 83.0458 330.662 83.5347 330.401C84.0236 330.139 84.5085 330 85.8458 330ZM95.3141 336.793L90.0212 342.086L88.2071 340.272C87.8166 339.881 87.1834 339.881 86.7929 340.272C86.4024 340.662 86.4024 341.295 86.7929 341.686L89.3141 344.207C89.7047 344.598 90.3378 344.598 90.7284 344.207L96.7284 338.207C97.1189 337.817 97.1189 337.183 96.7284 336.793C96.3378 336.402 95.7047 336.402 95.3141 336.793Z" fill="#F4541D"/>
<g filter="url(#filter2_dd_2_849)">
<rect x="248" y="48" width="40" height="24" rx="12" fill="#36AB80"/>
<rect x="268.81" y="52.8" width="14.39" height="14.39" rx="7.195" fill="white"/>
</g>
<g clip-path="url(#clip0_2_849)">
<g clip-path="url(#clip1_2_849)">
<g clip-path="url(#clip2_2_849)">
<path d="M212.621 181.956C211.94 181.722 211.253 181.506 210.561 181.307C210.677 180.832 210.784 180.362 210.879 179.901C212.439 172.331 211.419 166.232 207.937 164.224C204.598 162.299 199.138 164.307 193.623 169.106C193.08 169.58 192.548 170.067 192.029 170.568C191.682 170.235 191.329 169.909 190.969 169.589C185.19 164.457 179.397 162.294 175.918 164.308C172.583 166.239 171.595 171.972 172.999 179.147C173.138 179.858 173.296 180.564 173.472 181.267C172.652 181.5 171.86 181.748 171.103 182.012C164.327 184.374 160 188.077 160 191.917C160 195.883 164.646 199.861 171.703 202.274C172.275 202.468 172.852 202.649 173.433 202.815C173.245 203.572 173.077 204.333 172.931 205.099C171.592 212.149 172.637 217.747 175.964 219.666C179.4 221.647 185.167 219.611 190.782 214.702C191.238 214.303 191.683 213.893 192.118 213.471C192.68 214.014 193.257 214.54 193.848 215.05C199.287 219.73 204.66 221.62 207.983 219.696C211.416 217.709 212.532 211.696 211.083 204.379C210.969 203.806 210.841 203.236 210.699 202.669C211.104 202.549 211.502 202.425 211.889 202.297C219.226 199.866 224 195.936 224 191.917C224 188.063 219.533 184.335 212.621 181.956ZM211.029 199.702C210.68 199.818 210.32 199.929 209.954 200.038C209.144 197.474 208.051 194.747 206.714 191.93C207.99 189.18 209.041 186.488 209.828 183.941C210.483 184.13 211.118 184.33 211.731 184.541C217.653 186.58 221.266 189.594 221.266 191.917C221.266 194.391 217.364 197.603 211.029 199.702ZM208.401 204.91C209.042 208.145 209.133 211.07 208.708 213.357C208.327 215.412 207.561 216.782 206.613 217.33C204.596 218.498 200.283 216.98 195.631 212.977C195.081 212.503 194.545 212.014 194.022 211.51C195.826 209.538 197.628 207.245 199.387 204.698C202.481 204.424 205.404 203.975 208.055 203.362C208.185 203.889 208.301 204.405 208.401 204.91ZM181.819 217.129C179.848 217.824 178.279 217.844 177.33 217.297C175.311 216.133 174.472 211.638 175.617 205.609C175.753 204.897 175.909 204.188 176.084 203.485C178.706 204.065 181.608 204.482 184.709 204.733C186.48 207.225 188.334 209.515 190.203 211.521C189.806 211.905 189.399 212.279 188.983 212.644C186.5 214.814 184.012 216.354 181.819 217.129ZM172.587 199.687C169.467 198.62 166.89 197.234 165.123 195.721C163.536 194.362 162.734 193.012 162.734 191.917C162.734 189.586 166.208 186.614 172.003 184.594C172.707 184.349 173.443 184.117 174.206 183.9C175.007 186.505 176.058 189.229 177.326 191.983C176.041 194.778 174.976 197.546 174.167 200.181C173.637 200.03 173.11 199.865 172.587 199.687ZM175.682 178.622C174.479 172.475 175.278 167.838 177.288 166.674C179.429 165.435 184.164 167.202 189.154 171.633C189.479 171.923 189.8 172.218 190.114 172.519C188.255 174.516 186.417 176.789 184.662 179.266C181.652 179.545 178.771 179.993 176.122 180.594C175.959 179.94 175.812 179.283 175.682 178.622ZM203.289 185.439C202.663 184.358 202.014 183.291 201.342 182.238C203.384 182.496 205.341 182.839 207.178 183.258C206.627 185.026 205.939 186.874 205.13 188.769C204.538 187.647 203.925 186.537 203.289 185.439ZM192.031 174.473C193.292 175.84 194.555 177.365 195.797 179.02C193.277 178.901 190.753 178.9 188.233 179.018C189.476 177.379 190.75 175.855 192.031 174.473ZM180.701 185.457C180.073 186.546 179.47 187.65 178.894 188.767C178.098 186.879 177.417 185.022 176.86 183.229C178.686 182.82 180.634 182.486 182.663 182.233C181.983 183.292 181.329 184.367 180.701 185.457ZM182.721 201.795C180.625 201.561 178.648 201.245 176.823 200.847C177.388 199.022 178.084 197.126 178.897 195.197C179.476 196.315 180.081 197.419 180.711 198.509C181.36 199.629 182.031 200.726 182.721 201.795ZM192.106 209.553C190.81 208.155 189.518 206.608 188.256 204.945C189.481 204.993 190.73 205.017 192 205.017C193.305 205.017 194.594 204.988 195.863 204.931C194.617 206.625 193.359 208.174 192.106 209.553ZM205.156 195.099C206.011 197.049 206.732 198.935 207.305 200.729C205.449 201.152 203.446 201.493 201.335 201.746C202.011 200.674 202.666 199.588 203.299 198.49C203.943 197.373 204.562 196.243 205.156 195.099ZM200.931 197.124C199.962 198.808 198.938 200.46 197.861 202.078C195.91 202.216 193.955 202.284 192 202.283C190.008 202.283 188.071 202.221 186.205 202.1C185.101 200.487 184.057 198.832 183.077 197.139C182.102 195.455 181.191 193.735 180.347 191.982C181.189 190.229 182.097 188.508 183.069 186.823L183.069 186.823C184.04 185.138 185.076 183.49 186.172 181.883C188.076 181.739 190.027 181.664 192 181.664C193.981 181.664 195.936 181.74 197.839 181.885C198.924 183.489 199.953 185.131 200.922 186.808C201.897 188.49 202.818 190.202 203.681 191.943C202.826 193.702 201.909 195.43 200.931 197.124ZM206.571 166.593C208.714 167.829 209.548 172.813 208.201 179.349C208.115 179.766 208.019 180.191 207.914 180.622C205.258 180.009 202.375 179.553 199.356 179.27C197.598 176.766 195.776 174.489 193.946 172.518C194.426 172.056 194.916 171.606 195.418 171.168C200.143 167.056 204.559 165.433 206.571 166.593ZM192 186.202C195.156 186.202 197.715 188.761 197.715 191.917C197.715 195.073 195.156 197.632 192 197.632C188.844 197.632 186.285 195.073 186.285 191.917C186.285 188.761 188.844 186.202 192 186.202Z" fill="black"/>
</g>
</g>
</g>
<defs>
<filter id="filter0_dd_2_849" x="267" y="263" width="106" height="52" filterUnits="userSpaceOnUse" color-interpolation-filters="sRGB">
<feFlood flood-opacity="0" result="BackgroundImageFix"/>
<feColorMatrix in="SourceAlpha" type="matrix" values="0 0 0 0 0 0 0 0 0 0 0 0 0 0 0 0 0 0 127 0" result="hardAlpha"/>
<feMorphology radius="1" operator="erode" in="SourceAlpha" result="effect1_dropShadow_2_849"/>
<feOffset dy="6"/>
<feGaussianBlur stdDeviation="3"/>
<feComposite in2="hardAlpha" operator="out"/>
<feColorMatrix type="matrix" values="0 0 0 0 0.0313726 0 0 0 0 0.0431373 0 0 0 0 0.054902 0 0 0 0.1 0"/>
<feBlend mode="normal" in2="BackgroundImageFix" result="effect1_dropShadow_2_849"/>
<feColorMatrix in="SourceAlpha" type="matrix" values="0 0 0 0 0 0 0 0 0 0 0 0 0 0 0 0 0 0 127 0" result="hardAlpha"/>
<feOffset/>
<feGaussianBlur stdDeviation="0.5"/>
<feComposite in2="hardAlpha" operator="out"/>
<feColorMatrix type="matrix" values="0 0 0 0 0.0313726 0 0 0 0 0.0431373 0 0 0 0 0.054902 0 0 0 0.06 0"/>
<feBlend mode="normal" in2="effect1_dropShadow_2_849" result="effect2_dropShadow_2_849"/>
<feBlend mode="normal" in="SourceGraphic" in2="effect2_dropShadow_2_849" result="shape"/>
</filter>
<filter id="filter1_dd_2_849" x="27" y="119" width="50" height="52" filterUnits="userSpaceOnUse" color-interpolation-filters="sRGB">
<feFlood flood-opacity="0" result="BackgroundImageFix"/>
<feColorMatrix in="SourceAlpha" type="matrix" values="0 0 0 0 0 0 0 0 0 0 0 0 0 0 0 0 0 0 127 0" result="hardAlpha"/>
<feMorphology radius="1" operator="erode" in="SourceAlpha" result="effect1_dropShadow_2_849"/>
<feOffset dy="6"/>
<feGaussianBlur stdDeviation="3"/>
<feComposite in2="hardAlpha" operator="out"/>
<feColorMatrix type="matrix" values="0 0 0 0 0.0313726 0 0 0 0 0.0431373 0 0 0 0 0.054902 0 0 0 0.1 0"/>
<feBlend mode="normal" in2="BackgroundImageFix" result="effect1_dropShadow_2_849"/>
<feColorMatrix in="SourceAlpha" type="matrix" values="0 0 0 0 0 0 0 0 0 0 0 0 0 0 0 0 0 0 127 0" result="hardAlpha"/>
<feOffset/>
<feGaussianBlur stdDeviation="0.5"/>
<feComposite in2="hardAlpha" operator="out"/>
<feColorMatrix type="matrix" values="0 0 0 0 0.0313726 0 0 0 0 0.0431373 0 0 0 0 0.054902 0 0 0 0.06 0"/>
<feBlend mode="normal" in2="effect1_dropShadow_2_849" result="effect2_dropShadow_2_849"/>
<feBlend mode="normal" in="SourceGraphic" in2="effect2_dropShadow_2_849" result="shape"/>
</filter>
<filter id="filter2_dd_2_849" x="233" y="47" width="70" height="56" filterUnits="userSpaceOnUse" color-interpolation-filters="sRGB">
<feFlood flood-opacity="0" result="BackgroundImageFix"/>
<feColorMatrix in="SourceAlpha" type="matrix" values="0 0 0 0 0 0 0 0 0 0 0 0 0 0 0 0 0 0 127 0" result="hardAlpha"/>
<feMorphology radius="1" operator="erode" in="SourceAlpha" result="effect1_dropShadow_2_849"/>
<feOffset dy="16"/>
<feGaussianBlur stdDeviation="8"/>
<feComposite in2="hardAlpha" operator="out"/>
<feColorMatrix type="matrix" values="0 0 0 0 0.0313726 0 0 0 0 0.0431373 0 0 0 0 0.054902 0 0 0 0.1 0"/>
<feBlend mode="normal" in2="BackgroundImageFix" result="effect1_dropShadow_2_849"/>
<feColorMatrix in="SourceAlpha" type="matrix" values="0 0 0 0 0 0 0 0 0 0 0 0 0 0 0 0 0 0 127 0" result="hardAlpha"/>
<feOffset/>
<feGaussianBlur stdDeviation="0.5"/>
<feComposite in2="hardAlpha" operator="out"/>
<feColorMatrix type="matrix" values="0 0 0 0 0.0313726 0 0 0 0 0.0431373 0 0 0 0 0.054902 0 0 0 0.06 0"/>
<feBlend mode="normal" in2="effect1_dropShadow_2_849" result="effect2_dropShadow_2_849"/>
<feBlend mode="normal" in="SourceGraphic" in2="effect2_dropShadow_2_849" result="shape"/>
</filter>
<clipPath id="clip0_2_849">
<rect width="64" height="57" fill="white" transform="translate(160 163.5)"/>
</clipPath>
<clipPath id="clip1_2_849">
<rect width="64" height="57" fill="white" transform="translate(160 163.5)"/>
</clipPath>
<clipPath id="clip2_2_849">
<rect width="64" height="57" fill="white" transform="translate(160 163.5)"/>
</clipPath>
</defs>
</svg>
