<svg width="18" height="18" viewBox="0 0 18 18" fill="none" xmlns="http://www.w3.org/2000/svg">
<path fill-rule="evenodd" clip-rule="evenodd" d="M9 13.5C11.979 13.5 14.2237 11.8833 15.6071 9C14.2237 6.11669 11.979 4.5 9 4.5C6.02096 4.5 3.77629 6.11669 2.39289 9C3.77629 11.8833 6.02096 13.5 9 13.5ZM0.75 9C2.17725 5.57922 4.875 3 9 3C13.125 3 15.8228 5.57922 17.25 9C15.8228 12.4208 13.125 15 9 15C4.875 15 2.17725 12.4208 0.75 9ZM7.5 9C7.5 8.16843 8.16843 7.5 9 7.5C9.83157 7.5 10.5 8.16843 10.5 9C10.5 9.83157 9.83157 10.5 9 10.5C8.16843 10.5 7.5 9.83157 7.5 9ZM6 9C6 10.66 7.34 12 9 12C10.66 12 12 10.66 12 9C12 7.34 10.66 6 9 6C7.34 6 6 7.34 6 9Z" fill="#A7AAB0"/>
</svg>
