<svg width="36" height="28" viewBox="0 0 36 28" fill="none" xmlns="http://www.w3.org/2000/svg">
<path d="M16.8053 6.36631C16.1197 5.19163 15.1898 4.26163 14.0152 3.5761C12.8404 2.89054 11.5579 2.54785 10.1668 2.54785C8.77587 2.54785 7.49297 2.89065 6.31846 3.5761C5.14378 4.26159 4.21385 5.19163 3.52825 6.36631C2.84276 7.54096 2.5 8.82369 2.5 10.2145C2.5 11.8851 2.98741 13.3874 3.96248 14.7217C4.93745 16.0561 6.19696 16.9794 7.74091 17.4918C7.92063 17.5252 8.05367 17.5017 8.14017 17.422C8.22671 17.3423 8.26993 17.2423 8.26993 17.1227C8.26993 17.1027 8.26822 16.9231 8.26489 16.5836C8.26147 16.2441 8.25986 15.948 8.25986 15.6953L8.03024 15.735C7.88385 15.7618 7.69916 15.7732 7.47619 15.77C7.25332 15.7669 7.02196 15.7435 6.78241 15.7001C6.54276 15.657 6.31986 15.5572 6.11353 15.4008C5.90731 15.2444 5.76091 15.0397 5.67437 14.787L5.57455 14.5573C5.50801 14.4043 5.40325 14.2344 5.26014 14.0482C5.11703 13.8618 4.97231 13.7354 4.82591 13.6689L4.75601 13.6189C4.70944 13.5856 4.66622 13.5455 4.62626 13.499C4.58633 13.4524 4.55643 13.4059 4.53647 13.3592C4.51647 13.3125 4.53304 13.2743 4.58636 13.2442C4.63969 13.2142 4.73605 13.1996 4.87587 13.1996L5.07545 13.2294C5.20857 13.2561 5.37322 13.3358 5.56962 13.469C5.76591 13.602 5.92727 13.7751 6.05374 13.9879C6.20689 14.2609 6.3914 14.4688 6.6078 14.6119C6.82402 14.7551 7.04203 14.8265 7.26161 14.8265C7.48119 14.8265 7.67084 14.8098 7.83063 14.7767C7.99024 14.7434 8.14 14.6934 8.27982 14.6269C8.33972 14.1808 8.5028 13.8381 8.76892 13.5986C8.38962 13.5587 8.0486 13.4987 7.7457 13.4189C7.44297 13.3389 7.13014 13.2092 6.80741 13.0294C6.48451 12.8497 6.21664 12.6267 6.00374 12.3606C5.7908 12.0944 5.61605 11.7449 5.47972 11.3124C5.34332 10.8797 5.2751 10.3806 5.2751 9.81498C5.2751 9.00956 5.53804 8.32418 6.06381 7.75845C5.81752 7.15292 5.84077 6.47411 6.13364 5.72208C6.32664 5.66212 6.61287 5.70712 6.99217 5.8568C7.37154 6.00656 7.6493 6.13484 7.82573 6.24121C8.00217 6.34754 8.14353 6.43764 8.25003 6.51072C8.86909 6.33775 9.50794 6.25124 10.1667 6.25124C10.8256 6.25124 11.4645 6.33775 12.0836 6.51072L12.463 6.27124C12.7224 6.11145 13.0287 5.96502 13.3812 5.83191C13.734 5.69887 14.0037 5.66222 14.1901 5.72219C14.4895 6.47425 14.5162 7.15303 14.2698 7.75855C14.7955 8.32429 15.0586 9.00984 15.0586 9.81509C15.0586 10.3808 14.9901 10.8814 14.8539 11.3174C14.7176 11.7534 14.5413 12.1026 14.3251 12.3656C14.1086 12.6286 13.839 12.8499 13.5163 13.0295C13.1935 13.2092 12.8806 13.3389 12.5778 13.4188C12.275 13.4988 11.934 13.5588 11.5547 13.5988C11.9006 13.8981 12.0736 14.3707 12.0736 15.0162V17.1224C12.0736 17.242 12.1152 17.3419 12.1985 17.4218C12.2817 17.5015 12.413 17.5249 12.5928 17.4915C14.1369 16.9792 15.3964 16.0558 16.3714 14.7214C17.3462 13.3871 17.8338 11.8848 17.8338 10.2142C17.8334 8.82359 17.4905 7.54096 16.8053 6.36631Z" fill="black"/>
</svg>
