<svg width="18" height="18" viewBox="0 0 18 18" fill="none" xmlns="http://www.w3.org/2000/svg">
<path fill-rule="evenodd" clip-rule="evenodd" d="M16.5001 4.48837C16.5002 4.49567 16.5002 4.50296 16.5001 4.51025V13.875C16.5001 14.4963 15.9964 15 15.3751 15H2.62508C2.00376 15 1.50008 14.4963 1.50008 13.875V4.51025C1.49997 4.50296 1.49997 4.49567 1.50008 4.48837V4.125C1.50008 3.50368 2.00376 3 2.62508 3H15.3751C15.9964 3 16.5001 3.50368 16.5001 4.125V4.48837ZM3.60216 4.5L9.00008 8.09861L14.398 4.5H3.60216ZM15.0001 5.90139L9.41611 9.62404C9.16418 9.79199 8.83598 9.79199 8.58405 9.62404L3.00008 5.90139V13.5H15.0001V5.90139Z" fill="#A7AAB0"/>
</svg>
