<svg width="16" height="17" viewBox="0 0 16 17" fill="none" xmlns="http://www.w3.org/2000/svg">
<g clip-path="url(#clip0_2_1107)">
<path fill-rule="evenodd" clip-rule="evenodd" d="M10.3902 8.82682H3.99967C3.63148 8.82682 3.33301 8.52835 3.33301 8.16016C3.33301 7.79197 3.63148 7.49349 3.99967 7.49349H10.3902L8.19494 5.29823C7.93459 5.03788 7.93459 4.61577 8.19494 4.35542C8.45529 4.09507 8.8774 4.09507 9.13775 4.35542L12.4711 7.68875C12.7314 7.9491 12.7314 8.37121 12.4711 8.63156L9.13775 11.9649C8.8774 12.2252 8.45529 12.2252 8.19494 11.9649C7.93459 11.7045 7.93459 11.2824 8.19494 11.0221L10.3902 8.82682Z" fill="#0284FE"/>
</g>
<defs>
<clipPath id="clip0_2_1107">
<rect width="16" height="16" fill="white" transform="translate(-0.000366211 0.160156)"/>
</clipPath>
</defs>
</svg>
